<?xml version="1.0" standalone="no"?>
<!DOCTYPE svg PUBLIC "-//W3C//DTD SVG 20010904//EN"
 "http://www.w3.org/TR/2001/REC-SVG-20010904/DTD/svg10.dtd">
<svg version="1.0" xmlns="http://www.w3.org/2000/svg"
 width="1024.000000pt" height="1024.000000pt" viewBox="0 0 1024.000000 1024.000000"
 preserveAspectRatio="xMidYMid meet">

<g transform="translate(0.000000,1024.000000) scale(0.100000,-0.100000)"
fill="#000000" stroke="none">
<path d="M4968 7053 c7 -3 16 -2 19 1 4 3 -2 6 -13 5 -11 0 -14 -3 -6 -6z"/>
<path d="M4868 7033 c7 -3 16 -2 19 1 4 3 -2 6 -13 5 -11 0 -14 -3 -6 -6z"/>
<path d="M4828 7023 c7 -3 16 -2 19 1 4 3 -2 6 -13 5 -11 0 -14 -3 -6 -6z"/>
<path d="M4705 6990 c-13 -6 -15 -9 -5 -9 8 0 22 4 30 9 18 12 2 12 -25 0z"/>
<path d="M4635 6960 c-3 -6 1 -7 9 -4 18 7 21 14 7 14 -6 0 -13 -4 -16 -10z"/>
<path d="M4537 6911 c-40 -26 -47 -36 -12 -18 42 23 62 37 50 36 -5 0 -22 -8
-38 -18z"/>
<path d="M4425 6831 c-87 -71 -179 -167 -171 -180 4 -6 12 -9 17 -5 5 3 7 9 4
14 -3 4 3 14 13 21 15 13 16 12 3 -3 -9 -13 -10 -18 -2 -18 7 0 9 -5 5 -12 -4
-6 -3 -8 3 -5 6 4 14 0 17 -9 9 -22 8 -26 -5 -18 -8 4 -9 -1 -4 -15 6 -20 5
-21 -14 -9 -24 15 -26 24 -8 32 6 3 1 3 -12 0 -15 -4 -21 -2 -17 4 3 6 2 13
-3 17 -14 8 -85 -101 -75 -116 4 -8 3 -10 -4 -5 -24 14 -111 -199 -144 -349
-17 -79 -17 -361 1 -440 52 -241 176 -467 334 -610 183 -166 392 -260 636
-286 233 -24 497 39 694 165 31 20 57 39 57 42 0 4 -12 -2 -27 -12 -56 -36
-113 -66 -113 -57 0 4 -4 2 -9 -5 -4 -7 -27 -15 -51 -17 -24 -3 -52 -8 -64
-11 -18 -6 -17 -3 7 20 l28 26 -29 0 c-37 0 -46 10 -24 26 9 7 12 14 6 14 -6
0 -21 -9 -34 -20 -36 -31 -44 -24 -9 9 18 18 26 32 20 36 -6 3 -12 3 -12 -2
-1 -4 -5 10 -8 31 -6 42 -17 51 -41 36 -12 -7 -12 -12 -2 -22 9 -9 12 -9 12 5
0 9 5 17 10 17 6 0 10 -16 10 -35 0 -19 -4 -35 -10 -35 -5 0 -10 7 -10 16 0
10 -6 14 -15 10 -21 -8 -20 32 2 56 9 10 13 21 9 26 -4 4 -19 -6 -33 -23 l-24
-30 16 39 c10 27 12 43 5 50 -7 7 -10 5 -10 -7 0 -9 -4 -17 -10 -17 -5 0 -10
7 -10 15 0 8 -9 15 -21 15 -11 0 -18 4 -15 9 4 5 0 12 -6 14 -8 4 -7 6 4 6 9
1 20 -3 23 -9 3 -5 14 -10 23 -10 11 1 7 6 -11 16 -17 9 -40 13 -55 10 -35 -7
-7 5 68 29 106 34 247 131 319 219 14 17 -11 -4 -56 -46 -256 -241 -638 -264
-918 -54 -33 24 -64 42 -70 39 -5 -4 -7 -3 -3 2 4 4 -10 29 -31 54 -103 124
-152 234 -172 382 -13 95 -1 222 31 314 11 31 17 62 13 68 -3 5 -2 7 3 4 5 -3
22 19 38 49 38 72 144 186 225 240 36 24 62 44 58 44 -5 0 -28 -13 -52 -30
-46 -32 -61 -37 -49 -18 5 7 3 8 -5 4 -7 -5 -10 -11 -7 -14 9 -8 -25 -42 -41
-42 -7 0 -13 -5 -13 -11 0 -8 -4 -8 -15 1 -11 9 -17 9 -29 -2 -12 -11 -12 -15
1 -30 13 -15 13 -16 -5 -11 -11 2 -23 0 -26 -6 -4 -6 0 -11 10 -11 27 0 7 -13
-21 -15 -14 0 -25 5 -25 12 0 7 4 13 10 13 5 0 7 7 4 15 -9 22 -19 18 -31 -12
l-11 -28 -1 29 c-1 18 7 36 21 47 16 15 18 19 5 19 -8 0 -22 -7 -31 -15 -8 -9
-17 -11 -21 -6 -3 6 -13 8 -23 5 -14 -5 -15 -4 -2 5 8 6 24 11 35 11 11 0 26
4 33 9 7 4 -12 6 -43 3 l-56 -5 3 29 c3 28 2 29 -45 28 -32 0 -44 3 -37 10 5
5 10 18 10 28 0 10 7 18 15 18 8 0 15 5 15 10 0 6 -7 10 -15 10 -11 0 -14 7
-9 25 4 15 1 32 -6 40 -10 11 -10 18 -1 29 13 15 28 16 50 2 11 -7 12 -6 5 5
-17 28 -11 38 52 89 55 45 72 61 62 60 -2 -1 -30 -23 -63 -49z m-105 -162 c0
-11 -4 -18 -9 -14 -6 3 -9 14 -8 25 2 24 17 15 17 -11z m-65 -87 c-4 -4 -10
-1 -12 6 -4 10 -8 10 -21 0 -14 -12 -14 -11 -2 8 12 19 15 20 28 7 8 -7 11
-17 7 -21z m75 -52 c0 -5 -15 -9 -32 -9 l-33 1 30 8 c17 4 31 8 33 9 1 0 2 -3
2 -9z m44 -50 c-6 -5 -24 21 -24 34 0 6 6 1 14 -10 8 -10 12 -21 10 -24z
m-196 5 c-3 -3 -9 2 -12 12 -6 14 -5 15 5 6 7 -7 10 -15 7 -18z m413 -38 c-13
-13 -26 -3 -16 12 3 6 11 8 17 5 6 -4 6 -10 -1 -17z m-144 -29 c-3 -8 -6 -5
-6 6 -1 11 2 17 5 13 3 -3 4 -12 1 -19z m46 -54 c-4 -10 -9 -12 -15 -6 -12 12
-1 35 12 27 5 -3 6 -13 3 -21z m31 1 c-9 -14 -18 -25 -20 -25 -2 0 2 11 8 25
6 14 15 25 20 25 5 0 1 -11 -8 -25z m-69 -15 c3 -5 1 -10 -4 -10 -6 0 -11 5
-11 10 0 6 2 10 4 10 3 0 8 -4 11 -10z m35 -41 c-7 -11 -14 -18 -17 -15 -3 3
0 12 7 21 18 21 23 19 10 -6z m737 -1085 c-3 -3 -12 -4 -19 -1 -8 3 -5 6 6 6
11 1 17 -2 13 -5z m103 -98 c0 -3 -4 -8 -10 -11 -5 -3 -10 -1 -10 4 0 6 5 11
10 11 6 0 10 -2 10 -4z m83 -93 c-7 -2 -19 -2 -25 0 -7 3 -2 5 12 5 14 0 19
-2 13 -5z m45 -92 c3 -17 8 -21 20 -15 9 3 28 8 42 10 l25 4 -25 -11 c-14 -6
-37 -15 -51 -19 -24 -7 -25 -6 -21 17 3 15 -1 29 -9 35 -12 8 -11 9 1 5 8 -2
16 -14 18 -26z"/>
<path d="M5865 6760 c10 -11 20 -20 23 -20 3 0 -3 9 -13 20 -10 11 -20 20 -23
20 -3 0 3 -9 13 -20z"/>
<path d="M5003 6653 c9 -2 23 -2 30 0 6 3 -1 5 -18 5 -16 0 -22 -2 -12 -5z"/>
<path d="M5183 6653 c9 -2 25 -2 35 0 9 3 1 5 -18 5 -19 0 -27 -2 -17 -5z"/>
<path d="M4915 6640 c-13 -5 -14 -9 -5 -9 8 0 24 4 35 9 13 5 14 9 5 9 -8 0
-24 -4 -35 -9z"/>
<path d="M5258 6643 c7 -3 16 -2 19 1 4 3 -2 6 -13 5 -11 0 -14 -3 -6 -6z"/>
<path d="M4840 6610 c-8 -5 -10 -10 -5 -10 6 0 17 5 25 10 8 5 11 10 5 10 -5
0 -17 -5 -25 -10z"/>
<path d="M5370 6610 c8 -5 20 -10 25 -10 6 0 3 5 -5 10 -8 5 -19 10 -25 10 -5
0 -3 -5 5 -10z"/>
<path d="M4401 6584 c0 -11 3 -14 6 -6 3 7 2 16 -1 19 -3 4 -6 -2 -5 -13z"/>
<path d="M4795 6590 c-3 -6 1 -7 9 -4 18 7 21 14 7 14 -6 0 -13 -4 -16 -10z"/>
<path d="M4330 6580 c0 -5 5 -10 10 -10 6 0 10 5 10 10 0 6 -4 10 -10 10 -5 0
-10 -4 -10 -10z"/>
<path d="M4370 6580 c0 -5 5 -10 11 -10 5 0 7 5 4 10 -3 6 -8 10 -11 10 -2 0
-4 -4 -4 -10z"/>
<path d="M4400 6520 c0 -13 11 -13 30 0 12 8 11 10 -7 10 -13 0 -23 -4 -23
-10z"/>
<path d="M5520 6517 c0 -2 15 -16 33 -33 l32 -29 -29 33 c-28 30 -36 37 -36
29z"/>
<path d="M5488 6194 c-39 -21 -35 -28 5 -8 37 19 44 24 31 24 -5 -1 -21 -8
-36 -16z"/>
<path d="M5323 6122 c-62 -25 -111 -47 -109 -49 4 -4 176 61 213 81 48 26 12
15 -104 -32z"/>
<path d="M5077 6022 c-72 -30 -104 -48 -95 -53 7 -5 18 -9 23 -9 6 0 3 5 -5
10 -15 10 -12 11 23 14 6 1 14 4 17 7 3 3 37 18 75 34 66 27 101 46 80 44 -6
-1 -59 -22 -118 -47z"/>
<path d="M4895 5943 c-33 -14 -80 -33 -105 -43 -44 -18 -36 -18 375 -13 231 2
425 6 430 8 6 2 -155 4 -357 4 -208 1 -369 5 -372 10 -4 5 4 7 16 4 17 -3 19
-2 10 5 -10 7 -3 13 27 26 23 8 41 18 41 21 0 7 3 8 -65 -22z"/>
<path d="M5888 5903 c6 -2 18 -2 25 0 6 3 1 5 -13 5 -14 0 -19 -2 -12 -5z"/>
<path d="M5648 5893 c6 -2 18 -2 25 0 6 3 1 5 -13 5 -14 0 -19 -2 -12 -5z"/>
<path d="M5865 5690 c-3 -6 1 -7 9 -4 18 7 21 14 7 14 -6 0 -13 -4 -16 -10z"/>
<path d="M5774 5628 l-19 -23 23 19 c21 18 27 26 19 26 -2 0 -12 -10 -23 -22z"/>
<path d="M5730 5578 c-12 -22 -12 -22 6 -6 10 10 15 20 12 24 -4 3 -12 -5 -18
-18z"/>
<path d="M5695 5539 c-4 -6 -5 -12 -2 -15 2 -3 7 2 10 11 7 17 1 20 -8 4z"/>
<path d="M6019 5343 c-13 -16 -12 -17 4 -4 9 7 17 15 17 17 0 8 -8 3 -21 -13z"/>
<path d="M5328 5243 c6 -2 18 -2 25 0 6 3 1 5 -13 5 -14 0 -19 -2 -12 -5z"/>
<path d="M5870 5157 c-30 -29 -68 -63 -84 -75 -16 -12 -27 -24 -24 -27 2 -2
42 31 89 75 46 43 82 79 79 79 -3 0 -30 -23 -60 -52z"/>
<path d="M1990 3960 l0 -550 350 0 350 0 0 85 0 85 -250 0 -251 0 3 143 3 142
223 0 222 0 0 83 0 82 -225 0 -225 0 0 150 0 150 250 0 250 0 0 90 0 90 -350
0 -350 0 0 -550z"/>
<path d="M2860 3960 l0 -550 90 0 90 0 2 193 3 192 155 -192 155 -193 118 0
c86 0 116 3 111 11 -4 7 -85 104 -181 217 -95 113 -172 209 -171 212 2 4 75
88 163 185 88 98 161 181 163 185 2 4 -44 8 -102 9 l-104 2 -154 -169 -153
-169 -3 308 -2 309 -90 0 -90 0 0 -550z"/>
<path d="M4862 4221 c-34 -12 -70 -35 -98 -62 l-44 -43 0 56 0 56 -90 1 -90 1
0 -410 0 -410 95 0 95 0 0 248 c0 285 8 330 64 380 62 54 166 48 210 -11 20
-27 21 -42 24 -323 l3 -294 94 0 95 0 0 268 c0 238 2 271 19 308 24 53 60 80
116 89 54 8 107 -14 139 -58 20 -27 21 -44 24 -318 l3 -289 95 0 94 0 0 298
c0 321 -4 357 -53 431 -54 82 -194 121 -313 86 -46 -13 -70 -28 -110 -68 l-51
-52 -47 52 c-72 80 -165 102 -274 64z"/>
<path d="M6142 4224 c-174 -46 -278 -177 -297 -371 -16 -157 48 -303 166 -382
84 -56 153 -74 269 -69 81 3 105 8 161 35 93 43 143 92 187 182 37 75 37 77
37 201 0 120 -1 128 -32 192 -35 75 -100 146 -162 177 -96 49 -226 63 -329 35z
m216 -173 c75 -39 119 -106 128 -200 21 -195 -119 -326 -293 -276 -76 22 -126
74 -149 152 -38 132 15 276 121 324 54 25 145 25 193 0z"/>
<path d="M7073 4225 c-78 -21 -130 -51 -185 -106 -61 -61 -94 -131 -109 -233
-30 -199 54 -371 219 -449 64 -30 73 -32 187 -32 113 0 124 2 185 31 86 41
153 108 193 192 31 64 32 72 32 192 0 120 -1 128 -32 192 -18 38 -51 86 -76
110 -102 100 -271 141 -414 103z m213 -174 c118 -54 166 -235 98 -368 -42 -81
-101 -117 -193 -117 -98 1 -162 39 -207 124 -28 53 -26 201 3 255 27 50 68 89
113 109 48 21 136 20 186 -3z"/>
<path d="M3630 4225 c0 -2 72 -177 160 -391 159 -385 160 -387 148 -428 -23
-77 -115 -146 -196 -146 -22 0 -23 -3 -21 -81 l2 -81 73 4 c131 9 229 79 301
214 17 33 56 129 86 214 46 129 229 623 252 683 7 15 -2 17 -92 17 l-99 0
-101 -292 c-56 -161 -104 -286 -106 -278 -3 8 -52 140 -109 293 l-103 278 -97
-2 c-54 -1 -98 -3 -98 -4z"/>
<path d="M7632 4218 c2 -7 69 -192 148 -410 l144 -398 101 0 102 0 142 389
c78 213 145 398 148 410 5 21 4 22 -88 19 l-94 -3 -42 -120 c-23 -66 -67 -194
-98 -285 -31 -91 -58 -172 -61 -180 -4 -8 -39 84 -80 205 -41 121 -87 256
-103 300 l-29 80 -97 3 c-76 2 -96 0 -93 -10z"/>
</g>
</svg>
